<svg xmlns="http://www.w3.org/2000/svg" width="197" height="20.779" viewBox="0 0 197 20.779">
  <g id="logo" transform="translate(-339.788 -346.76)">
    <g id="Grupo_14" data-name="Grupo 14" transform="translate(445.924 347.082)">
      <path id="Caminho_22" data-name="Caminho 22" d="M718.965,357.892a4.559,4.559,0,0,0,3.165-4.513c0-3.136-2.491-5.1-6.565-5.1h-8.851v19.929h9.144c4.426,0,7.239-2.2,7.239-5.451A4.691,4.691,0,0,0,718.965,357.892Zm-9.466-7.151h5.774c2.667,0,4.191,1.143,4.191,2.989,0,1.993-1.554,3.224-4.4,3.224H709.5Zm6.242,15.005H709.5v-6.3h6.33c2.814,0,4.513,1.055,4.513,2.989C720.343,364.31,718.7,365.746,715.742,365.746Z" transform="translate(-706.715 -348.162)" fill="#e71a3b"/>
      <path id="Caminho_23" data-name="Caminho 23" d="M779.314,347.874l-8.88,20.046h2.989l2.227-5.129h9.965l2.227,5.129h2.989l-8.88-20.046Zm-2.55,12.338,3.869-8.968,3.869,8.968Z" transform="translate(-752.003 -347.874)" fill="#e71a3b"/>
      <path id="Caminho_24" data-name="Caminho 24" d="M866.488,357.1H855.5v-8.822h-2.784v19.929H855.5V359.68h10.99v8.528H869.3V348.279h-2.814Z" transform="translate(-810.483 -348.162)" fill="#e71a3b"/>
      <rect id="Retângulo_19" data-name="Retângulo 19" width="2.784" height="19.929" transform="translate(64.344 0.117)" fill="#e71a3b"/>
      <path id="Caminho_25" data-name="Caminho 25" d="M961.843,347.874H959.2l-8.88,20.046h2.989l2.227-5.129h9.965l2.227,5.129h2.989Zm-5.188,12.338,3.869-8.968,3.869,8.968Z" transform="translate(-879.859 -347.874)" fill="#e71a3b"/>
    </g>
    <g id="Grupo_15" data-name="Grupo 15" transform="translate(339.788 346.76)">
      <path id="Caminho_26" data-name="Caminho 26" d="M420.642,347.874l-8.47,20.046h5.275l1.319-3.429h8.441l1.348,3.429h5.275l-8.44-20.046Zm-.235,12.4,2.579-6.623,2.579,6.623Z" transform="translate(-391.234 -347.552)" fill="#0033c6"/>
      <path id="Caminho_27" data-name="Caminho 27" d="M501.644,355.347l-2.784-.645c-1.582-.322-2.4-.821-2.4-1.963,0-1.29,1.143-2.051,2.9-2.051a3.008,3.008,0,0,1,3.283,2.7h4.982c-.5-5.363-5.3-6.623-8.528-6.623-4.689,0-7.913,2.52-7.913,6.506,0,3.165,1.846,4.953,5.773,5.8l3.282.7c1.729.323,2.11,1.055,2.11,1.758,0,1.114-1.055,1.817-2.814,1.817-2.344,0-3.839-1.143-4.162-2.9H490.39c.469,4.924,4.513,7.092,9,7.092,4.982,0,8.264-2.491,8.264-6.477C507.652,357.633,505.307,356.138,501.644,355.347Z" transform="translate(-446.827 -346.76)" fill="#0033c6"/>
      <path id="Caminho_28" data-name="Caminho 28" d="M562.924,347.874l-8.47,20.046h5.275l1.319-3.429h8.44l1.348,3.429h5.275l-8.441-20.046Zm-.234,12.4,2.579-6.623,2.579,6.623Z" transform="translate(-492.36 -347.552)" fill="#0033c6"/>
      <path id="Caminho_29" data-name="Caminho 29" d="M643.925,355.347l-2.784-.645c-1.583-.322-2.4-.821-2.4-1.963,0-1.29,1.143-2.051,2.9-2.051a3.008,3.008,0,0,1,3.283,2.7H649.9c-.5-5.363-5.3-6.623-8.528-6.623-4.689,0-7.913,2.52-7.913,6.506,0,3.165,1.846,4.953,5.773,5.8l3.283.7c1.729.323,2.11,1.055,2.11,1.758,0,1.114-1.055,1.817-2.814,1.817-2.344,0-3.839-1.143-4.161-2.9h-4.982c.469,4.924,4.513,7.092,9,7.092,4.982,0,8.264-2.491,8.264-6.477C649.933,357.633,647.588,356.138,643.925,355.347Z" transform="translate(-547.953 -346.76)" fill="#0033c6"/>
      <path id="Caminho_30" data-name="Caminho 30" d="M355.233,358.935a4.757,4.757,0,0,1-4.923,4.044,5.749,5.749,0,0,1,0-11.488,4.757,4.757,0,0,1,4.923,4.044l4.971-.79a9.6,9.6,0,0,0-9.865-7.885,10.376,10.376,0,1,0,0,20.749,9.6,9.6,0,0,0,9.867-7.9l-4.9-.778Z" transform="translate(-339.788 -346.832)" fill="#0033c6"/>
    </g>
  </g>
</svg>
