<?xml version="1.0" encoding="utf-8"?>
<!-- Generator: Adobe Illustrator 22.1.0, SVG Export Plug-In . SVG Version: 6.00 Build 0)  -->
<svg version="1.1" id="Camada_1" xmlns="http://www.w3.org/2000/svg" xmlns:xlink="http://www.w3.org/1999/xlink" x="0px" y="0px"
	 viewBox="0 0 120 45" style="enable-background:new 0 0 120 45;" xml:space="preserve">
<style type="text/css">
	.st0{fill:#CD2030;}
	.st1{fill:#FFFFFF;}
</style>
<g>
	<path class="st0" d="M43.1,5.6c0.9,0,1.7,0.2,2.3,0.7c1-0.5,2.2-0.7,3.5-0.7h3.2V7c1.5-1.1,3.3-1.7,5.4-1.7c2.7,0,4.9,1.1,6.3,2.9
		V6.6c-0.4-0.6-0.6-1.4-0.6-2.2c0-2.5,2-4.4,4.7-4.4c2.7,0,4.7,1.8,4.7,4.4c0,0.4-0.1,0.8-0.2,1.2h1.9c0.9,0,1.7,0.3,2.3,0.8
		c1-0.5,2.2-0.8,3.5-0.8h6.6c5.4,0,8.4,2.8,8.4,8V16h1.5v4.9h5.5v3.5h1.4h2.6h3.7c5.4,0,8.4,2.9,8.4,8V35h1.5v7.4h-5.4
		c-0.8,0-1.6-0.2-2.2-0.6c-0.9,0.5-2,0.6-3.4,0.6c-0.2,0-0.5,0-0.7,0h-6.9c-2.7,0-4.7-0.9-6-2.5c-0.7,1.1-1.9,1.8-3.3,2.3l0,0
		c-0.1,0-0.2,0-0.3,0.1c-0.1,0-0.3,0.1-0.4,0.1H91c-0.1,0-0.1,0-0.2,0c-1.6,0.3-3.5,0.3-5.3-0.2c-0.5-0.1-1-0.3-1.5-0.5
		c-0.1,0-0.1,0-0.2-0.1c-0.1,0-0.1-0.1-0.2-0.1c0,0-0.1,0-0.1-0.1c-0.8-0.3-1.5-0.7-2.1-1.1c-1.6,1.4-3.7,2.2-6.1,2.2
		c-2.6,0-4.8-0.9-6.5-2.5v1.9l-1,0.6c-2.4,1.6-4.7,2.3-7.4,2.3c-6.9,0-11.8-4.8-11.8-11.6c0-4.3,1.9-7.8,4.9-9.8h-30l0,0
		c-4.8,0-8.4-3-9.1-7.4h-3.7v7.4H2.1v-15H0.2V0.6h18v6.1c1.4-0.9,3.1-1.4,4.9-1.4c2.5,0,4.6,0.9,6,2.6V5.6h3.7
		c0.9,0,1.7,0.2,2.3,0.7c1-0.5,2.2-0.7,3.5-0.7H43.1z"/>
	<path class="st1" d="M67.8,6.6c1.5,0,2.5-0.9,2.5-2.3c0-1.3-1-2.2-2.5-2.2S65.3,3,65.3,4.3C65.4,5.8,66.4,6.6,67.8,6.6z"/>
	<path class="st1" d="M34.9,9.2c-0.2-0.9-1-1.4-1.9-1.4h-1.5v13.5h4.1v-7.4c0-2.1,1.4-3,3.3-3h0.9V7.7h-1C37,7.7,35.6,8.3,34.9,9.2z
		"/>
	<path class="st1" d="M76.8,13.9c0-2.1,1.4-3,3.3-3H81V7.7h-1c-1.8,0-3.1,0.6-3.9,1.5c-0.2-0.9-1-1.4-1.9-1.4h-1.5v13.5h4.1
		C76.8,21.3,76.8,13.9,76.8,13.9z"/>
	<path class="st1" d="M23.2,7.4c-4,0-6.7,2.9-6.7,7.1c0,4,2.8,7,7.1,7c2,0,3.7-0.4,4.9-1.3V17c-1.4,0.8-2.8,1.1-4.5,1.1
		c-1.9,0-3.2-1-3.6-2.7H29c0-0.4,0-1,0-1.6C29,10,26.8,7.4,23.2,7.4z M20.5,12.6c0.4-1.3,1.3-2.1,2.7-2.1c1.2,0,2,0.8,2.2,2.1H20.5z
		"/>
	<path class="st1" d="M45,9.2c-0.2-0.9-1-1.4-1.9-1.4h-1.5v13.5h4.1v-7.4c0-2.1,1.4-3,3.3-3h0.9V7.7h-1C47.1,7.7,45.8,8.3,45,9.2z"
		/>
	<path class="st1" d="M68.3,7.8h-2.4v13.5H70V9.6C70.1,8.5,69.4,7.8,68.3,7.8z"/>
	<path class="st1" d="M2.4,6.3h1.1c0.6,0,0.8,0.2,0.8,0.8v14.5h4.3v-7.4h6.2v-3.5H8.6V6.3h7.5V2.7H2.4V6.3z"/>
	<path class="st1" d="M92.9,17.4v-4c0-3.8-1.9-5.8-6.2-5.8h-4v3.2h3.5c1.8,0,2.7,0.6,2.8,2.2h-1.2c-4.1,0-6.5,1.2-6.5,4.4
		c0,2.5,1.7,4.1,4.4,4.1c1.7,0,2.7-0.7,3.6-1.7c0.4,0.9,1.1,1.4,2,1.4h3.2v-3h-0.8C93.2,18.2,92.9,17.9,92.9,17.4z M86.4,18.5
		c-0.8,0-1.4-0.6-1.4-1.3c0-1.2,0.8-1.6,2.7-1.6h1.2C88.9,17.3,87.9,18.5,86.4,18.5z"/>
	<path class="st1" d="M57.8,21.5c2,0,3.7-0.4,5-1.3V17c-1.4,0.8-2.9,1.1-4.6,1.1c-1.9,0-3.2-1-3.5-2.7h8.5c0.1-0.4,0.2-1.1,0.2-1.7
		c0-3.8-2.2-6.4-5.9-6.4c-4,0-6.7,2.9-6.7,7.1C50.8,18.5,53.5,21.5,57.8,21.5z M57.4,10.5c1.2,0,2.1,0.8,2.2,2.1h-4.8
		C55.2,11.3,56,10.5,57.4,10.5z"/>
	<path class="st1" d="M55.2,33.5c0-3.6,2.4-5.6,5.5-5.6c2.1,0,3.8,0.6,5.6,1.8v-3.8c-1.7-1.1-3.8-1.8-6.2-1.8
		c-5.6,0-9.3,3.9-9.3,9.5s3.9,9.4,9.6,9.4c2.5,0,4.4-0.7,6.2-1.9v-3.9c-2,1.3-3.9,1.9-5.9,1.9C57.6,39,55.2,37,55.2,33.5z"/>
	<path class="st1" d="M99.9,23.1h-4.2v12.1c0,3.6,2.3,5,5.4,5h2v-3.3h-1.5c-1.1,0-1.8-0.6-1.8-2v-5.1h4v-3.2h-4L99.9,23.1L99.9,23.1
		z"/>
	<path class="st1" d="M116.9,37.2c-0.6,0-0.8-0.3-0.8-0.8v-3.9c0-3.9-1.9-5.9-6.2-5.9h-4.2v3.2h3.8c1.8,0,2.7,0.6,2.8,2.2H111
		c-4.1,0-6.4,1.2-6.4,4.4c0,2.5,1.6,4.1,4.3,4.1c1.7,0,2.8-0.8,3.7-1.7c0.3,0.9,1,1.4,1.9,1.4h3.2v-3H116.9z M109.6,37.4
		c-0.9,0-1.5-0.5-1.5-1.2c0-1.2,0.8-1.7,2.8-1.7h1.2C112.1,36.2,111.1,37.4,109.6,37.4z"/>
	<path class="st1" d="M75.3,26.4c-4.1,0-7.2,3-7.2,7.1c0,4,3.1,7,7.2,7s7.1-3.1,7.1-7.1S79.4,26.4,75.3,26.4z M75.3,37.1
		c-1.8,0-3-1.4-3-3.6c0-2.3,1.2-3.6,3-3.6s2.9,1.3,2.9,3.6C78.2,35.7,77.1,37.1,75.3,37.1z"/>
	<path class="st1" d="M83.8,30.6c0,1.9,1,2.9,3.4,3.9c1.9,0.8,2.6,1.2,2.6,1.8c0,0.7-0.4,0.8-1.3,0.8c-1.7,0-3.3-0.3-4.8-1.1v3.2
		c1.1,0.7,3.2,1.2,5.2,1.2c3,0,5.1-1.7,5.1-4.2s-1.9-3.4-3.8-4.2c-1.7-0.8-2.4-0.9-2.4-1.5s0.4-0.8,1.5-0.8H94v-3.2h-5
		C85.9,26.5,83.8,28,83.8,30.6z"/>
</g>
</svg>
